<?xml version="1.0" standalone="no"?>
<!DOCTYPE svg PUBLIC "-//W3C//DTD SVG 20010904//EN"
 "http://www.w3.org/TR/2001/REC-SVG-20010904/DTD/svg10.dtd">
<svg version="1.0" xmlns="http://www.w3.org/2000/svg"
 width="1000.000000pt" height="641.000000pt" viewBox="0 0 1000.000000 641.000000"
 preserveAspectRatio="xMidYMid meet">

<g transform="translate(0.000000,641.000000) scale(0.100000,-0.100000)"
fill="#000000" stroke="none">
<path d="M6853 6036 c-131 -32 -239 -120 -301 -245 -36 -73 -37 -78 -37 -190
0 -110 2 -120 32 -184 133 -281 485 -351 711 -142 149 138 185 353 90 540 -33
64 -122 149 -191 183 -105 51 -201 63 -304 38z"/>
<path d="M4461 4879 c-24 -5 -73 -22 -108 -38 -121 -57 -132 -74 -538 -776
-566 -981 -1049 -1818 -1180 -2045 -336 -580 -407 -708 -421 -758 -12 -39 -15
-82 -12 -146 3 -76 9 -102 36 -159 62 -132 187 -231 326 -256 40 -8 409 -11
1138 -11 1198 0 1160 -2 1275 66 114 67 195 189 215 322 34 234 -126 457 -361
502 -33 6 -311 10 -727 10 -371 0 -674 3 -674 8 0 4 48 91 108 193 59 102 310
538 557 967 248 430 452 781 455 781 3 0 104 -172 224 -382 654 -1139 1193
-2070 1233 -2129 211 -317 641 -426 981 -248 185 96 311 245 381 448 l26 77 3
1599 c2 1444 1 1605 -14 1655 -24 85 -62 147 -126 206 -225 209 -569 143 -706
-134 l-37 -75 -5 -1300 c-5 -1213 -6 -1299 -21 -1276 -10 14 -212 363 -449
775 -238 413 -541 937 -673 1165 -131 228 -287 498 -345 600 -122 211 -176
274 -274 320 -99 46 -188 59 -287 39z"/>
</g>
</svg>
